#N canvas 589 24 667 437 10;
#X obj 197 252 outlet;
#X obj 134 61 bng 15 250 50 0 empty empty empty 17 7 0 10 -262144 -1
-1;
#X obj 173 61 bng 15 250 50 0 empty empty empty 17 7 0 10 -262144 -1
-1;
#X obj 134 34 moses 1;
#X msg 162 221 \$1 127;
#X msg 226 219 \$1 0;
#X text 32 -136 button to note;
#X obj 139 96 f \$2;
#X obj 205 96 f \$2;
#X obj 240 130 r octave;
#X obj 225 159 +;
#X obj 166 150 +;
#X obj 277 12 tgl 15 0 empty empty empty 17 7 0 10 -262144 -1 -1 0
1;
#X obj 349 -3 r trigger;
#X obj 289 42 &;
#X obj 317 17 tgl 15 0 empty empty empty 17 7 0 10 -262144 -1 -1 0
1;
#X obj 335 117 print;
#X obj 291 69 change;
#X obj 144 -19 route \$1;
#X obj 128 179 f 0;
#X text 16 172 store last value \, otherwise octave shifts will result
in stuck notes;
#X obj 290 -72 inlet note;
#X obj 133 -72 inlet stream;
#X text 302 -93 override creation arg;
#X text 353 -24 retrig input;
#X obj 217 -77 inlet fret;
#X text 214 -103 override fret button number;
#X obj 498 52 list split 1;
#X obj 511 137 list;
#X obj 493 97 sel s;
#X obj 399 162 print selecting;
#X obj 415 48 symbol;
#X connect 1 0 7 0;
#X connect 1 0 19 0;
#X connect 2 0 8 0;
#X connect 3 0 1 0;
#X connect 3 1 2 0;
#X connect 4 0 0 0;
#X connect 5 0 0 0;
#X connect 7 0 10 0;
#X connect 8 0 11 0;
#X connect 9 0 10 1;
#X connect 9 0 11 1;
#X connect 11 0 4 0;
#X connect 11 0 19 1;
#X connect 12 0 14 1;
#X connect 13 0 15 0;
#X connect 14 0 17 0;
#X connect 15 0 14 0;
#X connect 17 0 16 0;
#X connect 17 0 3 0;
#X connect 18 0 3 0;
#X connect 18 0 12 0;
#X connect 19 0 5 0;
#X connect 21 0 7 1;
#X connect 21 0 8 1;
#X connect 22 0 27 0;
#X connect 25 0 31 0;
#X connect 27 0 29 0;
#X connect 27 1 28 1;
#X connect 28 0 3 0;
#X connect 28 0 12 0;
#X connect 29 0 28 0;
#X connect 31 0 29 1;
#X connect 31 0 30 0;
