#N canvas 382 57 835 641 10;
#X obj -12 364 bng 15 250 50 0 empty empty empty 17 7 0 10 -262144
-1 -1;
#X msg 356 112 60 61 62 63 64;
#X obj 98 367 tgl 15 0 empty empty empty 17 7 0 10 -262144 -1 -1 0
1;
#X obj -38 41 bng 15 250 50 0 empty empty empty 17 7 0 10 -262144 -1
-1;
#X msg 137 106 \; fret1 \$1 \; fret2 \$2 \; fret3 \$3 \; fret4 \$4
\; fret5 \$5 \; sbup \$6 \; sbdown \$7 \; octdn \$8 \; octup \$9 \;
whammy \$10;
#X msg 137 79 14 10 9 11 12 21 23 18 17 1;
#X text 240 311 depending on controller configuration \, the POV hat
might be used for the strum bar. If this is the case \, enable 'use
hat'and send messages to configure hat directions for strumming.;
#X text -19 40 start;
#X msg 356 146 \; btn1 \$1 \; btn2 \$2 \; btn3 \$3 \; btn4 \$4 \; btn5
\$5 \;;
#X text 349 72 Then pick some MIDI note numbers to map over the fret
buttons.;
#X obj -48 279 bng 15 250 50 0 empty empty empty 17 7 0 10 -1 -1 -1
;
#X obj 668 264 bng 15 250 50 0 empty empty empty 17 7 0 10 -33289 -1
-1;
#X text -45 -47 usage: [guitarhero device_number fret1-5 strum_up strum_down
shift_down shift_up whammy];
#X text 134 28 Hit buttons on the controller to see which control numbers
are in use \, then form a button mapping message using the following
message template.;
#X text -14 417 Button parameters can also be given as creation arguments.
Beware that changing the creation args when the patch is running may
cause PD to hang.;
#X obj -12 396 guitarhero 1 14 10 9 11 12 21 23 18 17 1;
#X text 95 342 use hat;
#X text -16 342 start;
#X text -41 2 Create guitarhero instance with HID device number as
first creation argument.;
#X obj -38 74 guitarhero 1;
#X msg 157 317 \; hatbtn 7 \; downhat 5 \; uphat 7 \; centhat 6;
#X text 319 370 Some controller modes may use the same axis for both
strum and whammy bar. These modes are not yet supported.;
#X connect 0 0 15 0;
#X connect 1 0 8 0;
#X connect 2 0 15 2;
#X connect 3 0 19 0;
#X connect 5 0 4 0;
#X connect 11 0 10 0;
