#N canvas 238 33 552 483 10;
#N canvas 594 289 647 424 note-onoff 0;
#X obj 186 323 outlet;
#X obj 185 83 moses 1;
#X msg 187 287 \$1 127;
#X msg 251 285 \$1 0;
#X obj 185 183 f;
#X obj 260 40 inlet note_number;
#X obj 185 120 b;
#X obj 250 120 b;
#X obj 377 40 inlet note_offset;
#X obj 185 40 inlet gate;
#X obj 186 215 +;
#X obj 251 253 f 0;
#X text 264 178 store last value \, otherwise octave shifts will result
in stuck notes;
#X connect 1 0 7 0;
#X connect 1 1 6 0;
#X connect 2 0 0 0;
#X connect 3 0 0 0;
#X connect 4 0 10 0;
#X connect 5 0 4 1;
#X connect 6 0 4 0;
#X connect 7 0 11 0;
#X connect 8 0 10 1;
#X connect 9 0 1 0;
#X connect 10 0 11 1;
#X connect 10 0 2 0;
#X connect 11 0 3 0;
#X restore 120 400 pd note-onoff;
#X obj 119 354 tgl 15 0 empty empty empty 17 7 0 10 -262144 -1 -1 0
1;
#X floatatom 150 354 5 0 0 0 - - -;
#X floatatom 197 352 5 0 0 0 - - -;
#N canvas 806 445 450 300 retrig 1;
#X obj 104 13 inlet;
#X obj 108 265 outlet;
#X obj 154 13 inlet;
#X obj 122 102 spigot;
#X obj 105 158 f;
#X connect 0 0 3 1;
#X connect 0 0 4 0;
#X connect 2 0 3 0;
#X connect 3 0 4 0;
#X connect 4 0 1 0;
#X restore 125 177 pd retrig;
#X obj 128 144 tgl 15 0 empty empty empty 17 7 0 10 -262144 -1 -1 0
1;
#X obj 171 136 tgl 15 0 empty empty empty 17 7 0 10 -262144 -1 -1 0
1;
#X obj 202 39 inlet match;
#X obj 109 38 inlet stream;
#X obj 120 441 outlet;
#X obj 128 104 ../tools/dynsel-symbol;
#X obj 125 218 ../tools/sep-insert;
#X obj 124 255 ../tools/de-dupe;
#X connect 0 0 9 0;
#X connect 1 0 0 0;
#X connect 2 0 0 1;
#X connect 3 0 0 2;
#X connect 4 0 11 0;
#X connect 5 0 4 0;
#X connect 6 0 4 1;
#X connect 7 0 10 1;
#X connect 8 0 10 0;
#X connect 10 0 5 0;
#X connect 11 0 12 0;
#X connect 12 0 1 0;
