#N canvas 32 22 424 342 10;
#X obj 54 -250 bng 15 250 50 0 empty empty empty 17 7 0 10 -262144
-1 -1;
#X obj 54 -123 print;
#X floatatom 58 -210 5 0 0 0 - - -;
#X obj 57 -164 de-dupe;
#X connect 0 0 2 0;
#X connect 2 0 3 0;
#X connect 3 0 1 0;
