#N canvas 19 22 450 300 10;
#X obj 121 39 inlet;
#X obj 119 149 outlet;
#X obj 120 108 pass-if;
#X obj 120 74 t f f;
#X text 199 115 remove duplicate floats from stream;
#X connect 0 0 3 0;
#X connect 2 1 1 0;
#X connect 3 0 2 1;
#X connect 3 1 2 0;
