#N canvas 0 22 470 272 10;
#X obj 134 -167 nbx 5 14 -1e+37 1e+37 0 0 empty empty empty 0 -8 0
10 -262144 -1 -1 0 256;
#X obj 113 -79 nbx 5 14 -1e+37 1e+37 0 0 empty empty empty 0 -8 0 10
-262144 -1 -1 0 256;
#X obj 180 -80 nbx 5 14 -1e+37 1e+37 0 0 empty empty empty 0 -8 0 10
-262144 -1 -1 0 256;
#X obj 136 -120 pass-if 3;
#X connect 0 0 3 0;
#X connect 3 0 1 0;
#X connect 3 1 2 0;
