#N canvas 127 310 450 300 10;
#X msg 142 30 key b_1 0;
#X msg 206 61 key;
#X obj 83 141 print;
#X obj 149 205 tgl 15 0 empty empty empty 17 7 0 10 -262144 -1 -1 0
1;
#X obj 149 271 tgl 15 0 empty empty empty 17 7 0 10 -262144 -1 -1 1
1;
#X obj 147 231 not;
#X msg 272 145 foo;
#X msg 307 144 foo;
#X msg 347 144 bar;
#X obj 294 247 tgl 15 0 empty empty empty 17 7 0 10 -262144 -1 -1 0
1;
#X obj 278 199 symbol-equals;
#X obj 143 102 dynroute;
#X connect 0 0 11 0;
#X connect 1 0 11 1;
#X connect 3 0 5 0;
#X connect 5 0 4 0;
#X connect 6 0 10 0;
#X connect 7 0 10 1;
#X connect 8 0 10 1;
#X connect 10 0 9 0;
#X connect 11 0 2 0;
