#N canvas 520 214 450 300 10;
#X obj 145 40 inlet;
#X obj 165 225 outlet;
#X obj 200 42 inlet;
#X obj 169 154 f 1;
#X obj 198 154 f 0;
#X obj 159 119 b;
#X obj 196 117 b;
#X obj 163 81 dynroute2;
#X text 278 57 set right inlet \, then send message to left inlet;
#X text 279 143 output will switch to 1 if they match;
#X connect 0 0 7 0;
#X connect 2 0 7 1;
#X connect 3 0 1 0;
#X connect 4 0 1 0;
#X connect 5 0 3 0;
#X connect 6 0 4 0;
#X connect 7 0 5 0;
#X connect 7 1 6 0;
